# xmcd
#
# Track frame offsets: 
#        150
#        14496
#        31070
#        43664
#        65542
#        93815
#        109747
#        135780
#        151108
#        170577
#        191161
#        207420
#
# Disc length: 2952 seconds
#
# Revision: 0
# Processed by: cddbd v1.5.2PL0 Copyright (c) Steve Scherf et al.
# Submitted via: ExactAudioCopyFreeDBPlugin 1.0
#
DISCID=960b860c
DTITLE=Joe Grushecky - Somewhere East of Eden
DYEAR=2013
DGENRE=Blues
TTITLE0=I Can Hear The Devil Knocking
TTITLE1=Who Cares About Those Kids
TTITLE2=John The Revelator
TTITLE3=Somewhere East Of Eden
TTITLE4=When Castro Came Down From The Hills
TTITLE5=I Still Look Good (For Sixty)
TTITLE6=Magnolia
TTITLE7=Save The Last Dance For Me
TTITLE8=I Was Born To Rock
TTITLE9=Prices Going Up
TTITLE10=Changing Of The Guard
TTITLE11=The First Day Of School
EXTD=
EXTT0=
EXTT1=
EXTT2=
EXTT3=
EXTT4=
EXTT5=
EXTT6=
EXTT7=
EXTT8=
EXTT9=
EXTT10=
EXTT11=
PLAYORDER=
